<?xml version="1.0" encoding="iso-8859-1"?>
<!-- Uploaded to: SVG Repo, www.svgrepo.com, Generator: SVG Repo Mixer Tools -->
<svg height="800px" width="800px" version="1.1" id="Layer_1" xmlns="http://www.w3.org/2000/svg" xmlns:xlink="http://www.w3.org/1999/xlink" 
	 viewBox="0 0 512.001 512.001" xml:space="preserve">
<path style="fill:#5192C9;" d="M388.821,123.181L272.458,6.818c-9.087-9.089-23.824-9.089-32.914,0L123.18,123.181L256.002,256
	L388.821,123.181z"/>
<path style="fill:#D5F4FA;" d="M123.18,123.181L6.817,239.545c-9.089,9.087-9.089,23.824,0,32.912l116.365,116.364L256.002,256
	L123.18,123.181z"/>
<path style="fill:#C0FCFF;" d="M505.183,239.545L388.821,123.181L256.002,256l132.821,132.821l116.362-116.365
	C514.274,263.368,514.274,248.632,505.183,239.545z"/>
<path style="fill:#5192C9;" d="M123.182,388.821l116.362,116.364c9.089,9.089,23.824,9.089,32.914,0l116.365-116.362L256.002,256
	L123.182,388.821z"/>
<g>
	<path style="fill:#447BA7;" d="M272.458,6.818C267.913,2.272,261.957,0,256.002,0v256l132.819-132.819L272.458,6.818z"/>
	<path style="fill:#447BA7;" d="M388.823,388.822L256.002,256v256c5.956,0,11.913-2.273,16.455-6.817L388.823,388.822z"/>
</g>
</svg>